<svg width="17" height="20" viewBox="0 0 17 20" fill="none" xmlns="http://www.w3.org/2000/svg">
<path d="M7.5 13H9.5V4H11.5L8.5 0L5.5 4H7.5V13ZM15.5 7H12.5V9H14.5V18H2.5V9H4.5V7H1.5C1.23478 7 0.98043 7.10536 0.792893 7.29289C0.605357 7.48043 0.5 7.73478 0.5 8V19C0.5 19.2652 0.605357 19.5196 0.792893 19.7071C0.98043 19.8946 1.23478 20 1.5 20H15.5C15.7652 20 16.0196 19.8946 16.2071 19.7071C16.3946 19.5196 16.5 19.2652 16.5 19V8C16.5 7.73478 16.3946 7.48043 16.2071 7.29289C16.0196 7.10536 15.7652 7 15.5 7Z" fill="#EDEEEE"/>
</svg>
