<svg width="33" height="32" viewBox="0 0 33 32" fill="none" xmlns="http://www.w3.org/2000/svg">
<path d="M12.0336 25.1439L10.4324 26.7353C9.76156 27.3955 8.85806 27.7656 7.91683 27.7656C6.9756 27.7656 6.07211 27.3955 5.40131 26.7353C5.07425 26.4114 4.81463 26.0259 4.63745 25.6011C4.46027 25.1762 4.36904 24.7205 4.36904 24.2602C4.36904 23.7999 4.46027 23.3442 4.63745 22.9194C4.81463 22.4945 5.07425 22.1091 5.40131 21.7852L11.2923 15.9435C12.512 14.7317 14.8091 12.9486 16.4834 14.6091C16.6636 14.8013 16.8807 14.9551 17.1216 15.0616C17.3626 15.168 17.6225 15.2247 17.8859 15.2285C18.1493 15.2323 18.4107 15.1829 18.6546 15.0834C18.8985 14.9839 19.1198 14.8363 19.3054 14.6494C19.491 14.4624 19.6371 14.24 19.7348 13.9955C19.8326 13.7509 19.8801 13.4891 19.8744 13.2257C19.8688 12.9624 19.8102 12.7028 19.702 12.4626C19.5939 12.2225 19.4385 12.0065 19.2451 11.8277C16.4024 9.00472 12.1957 9.52661 8.53262 13.1621L2.64165 19.0057C1.94559 19.6919 1.39336 20.5101 1.01727 21.4123C0.641183 22.3146 0.44878 23.2827 0.451319 24.2602C0.44889 25.2377 0.641344 26.2058 1.01743 27.108C1.39351 28.0102 1.94568 28.8284 2.64165 29.5147C4.0446 30.9063 5.94176 31.6854 7.91782 31.6814C9.82942 31.6814 11.741 30.9598 13.194 29.5147L14.7972 27.9233C14.98 27.7425 15.1254 27.5274 15.2248 27.2903C15.3243 27.0532 15.376 26.7987 15.3769 26.5416C15.3779 26.2845 15.328 26.0297 15.2302 25.7918C15.1324 25.554 14.9886 25.3378 14.8071 25.1557C14.4401 24.7878 13.9425 24.58 13.4228 24.5778C12.9031 24.5755 12.4037 24.7791 12.0336 25.1439ZM29.8884 2.44152C26.8302 -0.590999 22.5563 -0.755079 19.7294 2.05207L17.7348 4.0329C17.3662 4.39886 17.1581 4.89625 17.1562 5.41564C17.1544 5.93504 17.3589 6.43391 17.7249 6.80249C18.0908 7.17107 18.5882 7.37918 19.1076 7.38103C19.627 7.38288 20.1259 7.17833 20.4944 6.81237L22.491 4.83353C23.9539 3.37855 25.8734 3.9815 27.1287 5.22297C27.7929 5.88522 28.1606 6.76295 28.1606 7.69801C28.1606 8.63307 27.7929 9.5108 27.1287 10.1711L20.8424 16.4061C17.968 19.2548 16.6198 17.9204 16.0446 17.3491C15.8621 17.1679 15.6457 17.0244 15.4077 16.9268C15.1698 16.8293 14.9149 16.7795 14.6578 16.7804C14.4006 16.7813 14.1461 16.8329 13.9089 16.9322C13.6716 17.0314 13.4562 17.1765 13.275 17.359C13.0938 17.5415 12.9504 17.7579 12.8528 17.9958C12.7552 18.2338 12.7055 18.4886 12.7064 18.7458C12.7073 19.003 12.7589 19.2575 12.8581 19.4947C12.9574 19.732 13.1024 19.9474 13.2849 20.1286C14.6055 21.4372 16.1118 22.0857 17.6893 22.0857C19.6207 22.0857 21.6628 21.113 23.606 19.1856L29.8923 12.9525C30.5869 12.2652 31.138 11.4468 31.5136 10.5448C31.8893 9.64279 32.082 8.67513 32.0807 7.69801C32.0824 6.72018 31.8895 5.75178 31.5131 4.8493C31.1367 3.94681 30.5844 3.12831 29.8884 2.44152Z" fill="#090D1A"/>
</svg>
